<mxfile host="app.diagrams.net" modified="2022-08-11T10:44:31.572Z" agent="5.0 (Macintosh; Intel Mac OS X 10_15_7) AppleWebKit/537.36 (KHTML, like Gecko) Chrome/99.0.4844.74 Safari/537.36" etag="yoLNuf8wriCiF5tP_4aw" version="20.2.2" type="github">
  <diagram id="1GJ5jHGlIQ9WXhBab5mr" name="第 1 页">
    <mxGraphModel dx="786" dy="405" grid="1" gridSize="10" guides="1" tooltips="1" connect="1" arrows="1" fold="1" page="1" pageScale="1" pageWidth="827" pageHeight="1169" math="0" shadow="0">
      <root>
        <mxCell id="0" />
        <mxCell id="1" parent="0" />
        <mxCell id="XdVUr4Pytrd2VEiEUnV_-3" value="build()" style="edgeStyle=orthogonalEdgeStyle;rounded=0;orthogonalLoop=1;jettySize=auto;html=1;" edge="1" parent="1" source="XdVUr4Pytrd2VEiEUnV_-1" target="XdVUr4Pytrd2VEiEUnV_-2">
          <mxGeometry relative="1" as="geometry" />
        </mxCell>
        <mxCell id="XdVUr4Pytrd2VEiEUnV_-1" value="SqlSessionFactoryBuilder" style="rounded=1;whiteSpace=wrap;html=1;" vertex="1" parent="1">
          <mxGeometry x="220" y="110" width="230" height="50" as="geometry" />
        </mxCell>
        <mxCell id="XdVUr4Pytrd2VEiEUnV_-5" value="" style="edgeStyle=orthogonalEdgeStyle;rounded=0;orthogonalLoop=1;jettySize=auto;html=1;" edge="1" parent="1" source="XdVUr4Pytrd2VEiEUnV_-2" target="XdVUr4Pytrd2VEiEUnV_-4">
          <mxGeometry relative="1" as="geometry" />
        </mxCell>
        <mxCell id="XdVUr4Pytrd2VEiEUnV_-6" value="openSession()" style="edgeLabel;html=1;align=center;verticalAlign=middle;resizable=0;points=[];" vertex="1" connectable="0" parent="XdVUr4Pytrd2VEiEUnV_-5">
          <mxGeometry x="-0.05" y="-2" relative="1" as="geometry">
            <mxPoint as="offset" />
          </mxGeometry>
        </mxCell>
        <mxCell id="XdVUr4Pytrd2VEiEUnV_-2" value="SqlSessionFactory" style="whiteSpace=wrap;html=1;rounded=1;" vertex="1" parent="1">
          <mxGeometry x="275" y="235" width="120" height="60" as="geometry" />
        </mxCell>
        <mxCell id="XdVUr4Pytrd2VEiEUnV_-4" value="SqlSession" style="whiteSpace=wrap;html=1;rounded=1;" vertex="1" parent="1">
          <mxGeometry x="550" y="235" width="120" height="60" as="geometry" />
        </mxCell>
      </root>
    </mxGraphModel>
  </diagram>
</mxfile>
